<?xml version="1.0" encoding="UTF-8" standalone="no"?>
<svg
   xmlns:dc="http://purl.org/dc/elements/1.1/"
   xmlns:cc="http://creativecommons.org/ns#"
   xmlns:rdf="http://www.w3.org/1999/02/22-rdf-syntax-ns#"
   xmlns:svg="http://www.w3.org/2000/svg"
   xmlns="http://www.w3.org/2000/svg"
   xmlns:xlink="http://www.w3.org/1999/xlink"
   xmlns:sodipodi="http://sodipodi.sourceforge.net/DTD/sodipodi-0.dtd"
   xmlns:inkscape="http://www.inkscape.org/namespaces/inkscape"
   inkscape:version="1.0 (4035a4fb49, 2020-05-01)"
   height="64"
   width="64"
   sodipodi:docname="SafeSecurity.svg"
   id="svg26"
   version="1.1"
   viewBox="0 0 64 63.999998">
  <metadata
     id="metadata30">
    <rdf:RDF>
      <cc:Work
         rdf:about="">
        <dc:format>image/svg+xml</dc:format>
        <dc:type
           rdf:resource="http://purl.org/dc/dcmitype/StillImage" />
        <dc:title>Fichier 6</dc:title>
      </cc:Work>
    </rdf:RDF>
  </metadata>
  <sodipodi:namedview
     inkscape:current-layer="svg26"
     inkscape:window-maximized="0"
     inkscape:window-y="0"
     inkscape:window-x="0"
     inkscape:cy="64.289873"
     inkscape:cx="0.66261568"
     inkscape:zoom="4.000753"
     showgrid="false"
     id="namedview28"
     inkscape:window-height="907"
     inkscape:window-width="1419"
     inkscape:pageshadow="2"
     inkscape:pageopacity="0"
     guidetolerance="10"
     gridtolerance="10"
     objecttolerance="10"
     borderopacity="1"
     bordercolor="#666666"
     pagecolor="#ffffff" />
  <defs
     id="defs14">
    <linearGradient
       gradientUnits="userSpaceOnUse"
       y2="84.529999"
       x2="109.68"
       y1="84.529999"
       x1="62.959999"
       id="a">
      <stop
         id="stop2"
         stop-color="#9ed0e3"
         offset="0" />
      <stop
         id="stop4"
         stop-color="#bfdae3"
         offset="1" />
    </linearGradient>
    <linearGradient
       gradientTransform="matrix(0.57409721,0,0,0.57409721,0.35508267,1.7670647)"
       xlink:href="#a"
       y2="56.099998"
       x2="96.830002"
       y1="56.099998"
       x1="0"
       id="b" />
    <linearGradient
       gradientTransform="matrix(0.57409721,0,0,0.57409721,0.35508267,1.7670647)"
       gradientUnits="userSpaceOnUse"
       y2="63.41"
       x2="35.91"
       y1="6.6799998"
       x1="35.91"
       id="c">
      <stop
         id="stop8"
         stop-color="#76c5e3"
         offset="0" />
      <stop
         id="stop10"
         stop-color="#8fcee3"
         offset="1" />
    </linearGradient>
    <linearGradient
       gradientTransform="matrix(0.57409721,0,0,0.57409721,0.35508267,1.7670647)"
       xlink:href="#a"
       y2="5.1199999"
       x2="62.43"
       y1="5.1199999"
       x1="48.91"
       id="d" />
    <linearGradient
       id="a-5"
       x1="19.61"
       y1="63.57"
       x2="77.2"
       y2="63.57"
       gradientUnits="userSpaceOnUse">
      <stop
         offset="0"
         stop-color="#9ed0e3"
         id="stop857" />
      <stop
         offset="1"
         stop-color="#bfdae3"
         id="stop859" />
    </linearGradient>
    <linearGradient
       id="b-3"
       x1="48.41"
       y1="19.13"
       x2="48.41"
       y2="40.77"
       gradientUnits="userSpaceOnUse">
      <stop
         offset="0"
         stop-color="#76c5e3"
         id="stop862" />
      <stop
         offset="1"
         stop-color="#8fcee3"
         id="stop864" />
    </linearGradient>
    <linearGradient
       id="c-8"
       x1="51.62"
       y1="53.79"
       x2="96.82"
       y2="53.79"
       xlink:href="#a-5" />
    <linearGradient
       id="d-7"
       x1="0"
       y1="53.79"
       x2="45.2"
       y2="53.79"
       xlink:href="#a-5" />
    <linearGradient
       y2="63.57"
       x2="77.2"
       y1="63.57"
       x1="19.61"
       gradientUnits="userSpaceOnUse"
       id="linearGradient901"
       xlink:href="#a-5"
       inkscape:collect="always" />
  </defs>
  <title
     id="title16">Fichier 6</title>
  <g
     transform="matrix(0.58643219,0,0,0.58643219,3.931074,0.75050885)"
     id="g899">
    <path
       d="M 67.84,71.58 A 51.23,51.23 0 0 0 77.2,47.36 L 48.41,39.17 19.61,47.36 A 51.35,51.35 0 0 0 29,71.58 52,52 0 0 0 48.41,88 52,52 0 0 0 67.84,71.58 Z"
       fill="url(#a)"
       id="path873"
       style="fill:url(#linearGradient901)" />
    <path
       d="m 48.41,32.49 29.13,8.28 V 27.41 L 48.41,19.13 19.28,27.41 v 13.36 z"
       fill="url(#b)"
       id="path875"
       style="fill:url(#b-3)" />
    <path
       d="M 51.62,0 V 13.36 L 84,22.56 V 41.41 A 57.78,57.78 0 0 1 73.06,75.33 58.34,58.34 0 0 1 51.62,93.55 v 14 A 70.81,70.81 0 0 0 83.49,82.84 70.52,70.52 0 0 0 96.82,41.41 V 12.85 Z"
       fill="url(#c)"
       id="path877"
       style="fill:url(#c-8)" />
    <path
       d="M 45.2,93.55 A 58.34,58.34 0 0 1 23.76,75.33 57.71,57.71 0 0 1 12.85,41.41 V 22.56 L 45.2,13.36 V 0 L 0,12.85 v 28.56 a 71,71 0 0 0 45.2,66.17 z"
       fill="url(#d)"
       id="path879"
       style="fill:url(#d-7)" />
  </g>
</svg>
