<?xml version="1.0" encoding="UTF-8" standalone="no"?>
<svg
   xmlns:dc="http://purl.org/dc/elements/1.1/"
   xmlns:cc="http://creativecommons.org/ns#"
   xmlns:rdf="http://www.w3.org/1999/02/22-rdf-syntax-ns#"
   xmlns:svg="http://www.w3.org/2000/svg"
   xmlns="http://www.w3.org/2000/svg"
   xmlns:sodipodi="http://sodipodi.sourceforge.net/DTD/sodipodi-0.dtd"
   xmlns:inkscape="http://www.inkscape.org/namespaces/inkscape"
   sodipodi:docname="PartnerCoinGecko.svg"
   inkscape:version="1.0 (4035a4fb49, 2020-05-01)"
   id="svg8"
   version="1.1"
   viewBox="0 0 105.83333 39.687501"
   height="150"
   width="400">
  <defs
     id="defs2">
    <style
       id="style833">.cls-1{fill:#4c4c4c;}.cls-2{fill:#8dc63f;}.cls-3{fill:#f9e988;}.cls-4{fill:#fff;}.cls-5{fill:#8bc53f;}.cls-6{fill:#009345;}.cls-7{fill:#58595b;}</style>
  </defs>
  <sodipodi:namedview
     inkscape:window-maximized="0"
     inkscape:window-y="155"
     inkscape:window-x="472"
     inkscape:window-height="1040"
     inkscape:window-width="1274"
     inkscape:guide-bbox="true"
     showguides="true"
     units="px"
     showgrid="false"
     inkscape:document-rotation="0"
     inkscape:current-layer="layer1"
     inkscape:document-units="mm"
     inkscape:cy="278.74474"
     inkscape:cx="243.51556"
     inkscape:zoom="0.98994949"
     inkscape:pageshadow="2"
     inkscape:pageopacity="0.0"
     borderopacity="1.0"
     bordercolor="#666666"
     pagecolor="#ffffff"
     id="base" />
  <metadata
     id="metadata5">
    <rdf:RDF>
      <cc:Work
         rdf:about="">
        <dc:format>image/svg+xml</dc:format>
        <dc:type
           rdf:resource="http://purl.org/dc/dcmitype/StillImage" />
        <dc:title></dc:title>
      </cc:Work>
    </rdf:RDF>
  </metadata>
  <g
     id="layer1"
     inkscape:groupmode="layer"
     inkscape:label="Layer 1">
    <g
       transform="matrix(0.0975069,0,0,0.0975069,1.7016986,7.0734649)"
       id="g907">
      <g
         id="Coin_Gecko_Vector_Text"
         data-name="Coin Gecko Vector Text">
        <path
           class="cls-1"
           d="m 465.66,154 c -2.84,-11.07 -10,-19.17 -24,-19.17 -20.66,0 -29.3,18.22 -29.3,36.71 0,18.49 8.64,36.72 29.3,36.72 15,0 23.22,-11.2 24.56,-25.24 h 16.47 c -1.35,23.08 -17.68,39 -41,39 -28.89,0 -46.17,-22.95 -46.17,-50.49 0,-27.54 17.22,-50.53 46.11,-50.53 21.73,0.13 38.87,12.15 40.9,32.94 z"
           transform="translate(-34,-45.61)"
           id="path839" />
        <path
           class="cls-1"
           d="m 492.66,184.72 c 0,-21.33 12.82,-36.71 35.23,-36.71 22.41,0 35.23,15.38 35.23,36.71 0,21.33 -12.82,36.86 -35.23,36.86 -22.41,0 -35.23,-15.39 -35.23,-36.86 z m 55.07,0 c 0,-12 -6.07,-24.56 -19.84,-24.56 -13.77,0 -19.84,12.55 -19.84,24.56 0,12.01 6.07,24.71 19.84,24.71 13.77,0 19.84,-12.56 19.84,-24.71 z"
           transform="translate(-34,-45.61)"
           id="path841" />
        <path
           class="cls-1"
           d="m 576.35,123.3 h 15.39 v 14.58 h -15.39 z m 0,26.6 h 15.39 v 69.79 h -15.39 z"
           transform="translate(-34,-45.61)"
           id="path843" />
        <path
           class="cls-1"
           d="m 608.48,149.9 h 14.58 v 10.26 l 0.27,0.27 A 25,25 0 0 1 645.07,148 c 15.12,0 24.7,8.1 24.7,23.75 v 47.93 h -15.39 v -43.87 c -0.27,-10.93 -4.59,-15.65 -13.63,-15.65 -10.26,0 -16.88,8.09 -16.88,18.35 v 41.18 h -15.39 z"
           transform="translate(-34,-45.61)"
           id="path845" />
        <path
           class="cls-1"
           d="m 772.23,219.69 h -10.8 l -2.56,-11.34 c -9,10.26 -17.28,13.63 -29,13.63 C 701,222 683.68,199 683.68,171.49 683.68,143.98 701,121 729.85,121 c 21,0 38.74,11.2 41.3,32.94 h -16.47 c -1.62,-12.69 -12.68,-19.17 -24.83,-19.17 -20.66,0 -29.3,18.22 -29.3,36.71 0,18.49 8.64,36.72 29.3,36.72 17.27,0.27 26.72,-10.12 27,-26.46 H 731.2 v -12.81 h 41 z"
           transform="translate(-34,-45.61)"
           id="path847" />
        <path
           class="cls-1"
           d="m 800.45,188.77 c 0,10.94 5.94,20.66 18.76,20.66 8.91,0 14.31,-3.92 17,-11.61 h 14.59 c -3.37,15.25 -16.33,23.76 -31.59,23.76 -21.86,0 -34.15,-15.26 -34.15,-36.72 0,-19.85 13,-36.85 33.75,-36.85 22,0 35.5,19.84 32.94,40.76 z m 35.91,-10.12 c -0.54,-9.72 -7.16,-18.49 -17.55,-18.49 -10.67,0 -17.95,8.09 -18.36,18.49 z"
           transform="translate(-34,-45.61)"
           id="path849" />
        <path
           class="cls-1"
           d="m 910.61,173.25 c -1.22,-8.51 -7.43,-13.09 -15.93,-13.09 -8,0 -19.17,4.18 -19.17,25.37 0,11.61 5.13,23.9 18.49,23.9 8.91,0 15.12,-5.94 16.61,-15.93 H 926 c -2.84,18.09 -14,28.08 -32,28.08 -21.87,0 -33.88,-15.53 -33.88,-36.05 0,-21.06 11.48,-37.52 34.42,-37.52 16.2,0 30,8.1 31.46,25.24 z"
           transform="translate(-34,-45.61)"
           id="path851" />
        <path
           class="cls-1"
           d="m 939,123.3 h 15.39 v 54.81 L 982.2,149.9 h 18.9 l -26.73,25.64 29.29,44.15 h -18.8 l -21.33,-33.89 -9.18,8.91 v 25 H 939 Z"
           transform="translate(-34,-45.61)"
           id="path853" />
        <path
           class="cls-1"
           d="m 1007.81,184.72 c 0,-21.33 12.82,-36.71 35.23,-36.71 22.41,0 35.24,15.38 35.24,36.71 0,21.33 -12.83,36.86 -35.24,36.86 -22.41,0 -35.23,-15.39 -35.23,-36.86 z m 55.08,0 c 0,-12 -6.08,-24.56 -19.85,-24.56 -13.77,0 -19.84,12.55 -19.84,24.56 0,12.01 6.07,24.71 19.84,24.71 13.77,0 19.85,-12.56 19.85,-24.71 z"
           transform="translate(-34,-45.61)"
           id="path855" />
      </g>
      <g
         id="Coin_Gecko_AI"
         data-name="Coin Gecko AI">
        <path
           class="cls-2"
           d="M 310,183 A 138,138 0 1 1 171.4,45.61 138,138 0 0 1 310,183 Z"
           transform="translate(-34,-45.61)"
           id="path858" />
        <path
           class="cls-3"
           d="M 299.65,183.05 A 127.63,127.63 0 1 1 171.45,56 127.64,127.64 0 0 1 299.65,183.05 Z"
           transform="translate(-34,-45.61)"
           id="path860" />
        <path
           class="cls-4"
           d="m 174.35,64.27 a 70.18,70.18 0 0 1 24.53,0 74.66,74.66 0 0 1 23.43,7.85 c 7.28,4 13.57,9.43 19.83,14.52 6.26,5.09 12.49,10.3 18.42,16 a 93.38,93.38 0 0 1 15.71,19 108.07,108.07 0 0 1 11,22.17 c 5.33,15.66 7.18,32.53 4.52,48.62 H 291 c -2.67,-15.95 -6.29,-31.15 -12,-45.61 A 178,178 0 0 0 269.56,125.57 208.8,208.8 0 0 0 257.14,105.64 72.3,72.3 0 0 0 240.5,88.84 C 234.02,84.22 226.57,81.23 219.36,78.39 212.15,75.55 205,72.61 197.48,70.45 189.96,68.29 182.32,66.67 174.34,65.1 Z"
           transform="translate(-34,-45.61)"
           id="path862" />
        <path
           class="cls-5"
           d="m 236.74,138 c -9.26,-2.68 -18.86,-6.48 -28.58,-10.32 -0.56,-2.44 -2.72,-5.48 -7.09,-9.19 -6.35,-5.51 -18.28,-5.37 -28.59,-2.93 -11.38,-2.68 -22.62,-3.63 -33.41,-1 -88.25,24.31 -38.21,83.62 -70.61,143.24 4.61,9.78 54.3,66.84 126.2,51.53 0,0 -24.59,-59.09 30.9,-87.45 45.01,-23.09 77.53,-65.81 11.18,-83.88 z"
           transform="translate(-34,-45.61)"
           id="path864" />
        <path
           class="cls-4"
           d="m 247.64,176.81 a 5.35,5.35 0 1 1 -5.38,-5.32 5.36,5.36 0 0 1 5.38,5.32 z"
           transform="translate(-34,-45.61)"
           id="path866" />
        <path
           class="cls-6"
           d="m 172.48,115.52 c 6.43,0.46 29.68,8 35.68,12.12 -5,-14.5 -21.83,-16.43 -35.68,-12.12 z"
           transform="translate(-34,-45.61)"
           id="path868" />
        <path
           class="cls-4"
           d="m 178.6,152.19 a 24.68,24.68 0 1 1 -24.68,-24.67 24.67,24.67 0 0 1 24.68,24.67 z"
           transform="translate(-34,-45.61)"
           id="path870" />
        <path
           class="cls-7"
           d="m 171.28,152.41 a 17.36,17.36 0 1 1 -17.36,-17.36 17.36,17.36 0 0 1 17.36,17.36 z"
           transform="translate(-34,-45.61)"
           id="path872" />
        <path
           class="cls-5"
           d="m 267.63,187.69 c -20,14.09 -42.74,24.78 -75,24.78 -15.1,0 -18.16,-16 -28.14,-8.18 -5.15,4.06 -23.31,13.14 -37.72,12.45 -14.41,-0.69 -37.77,-9.14 -44.28,-39.9 -2.58,30.76 -3.9,53.42 -15.45,79.39 23,36.83 77.84,65.24 127.62,53 -5.35,-37.35 27.29,-73.93 45.68,-92.65 7,-7.09 20.3,-18.66 27.29,-28.91 z"
           transform="translate(-34,-45.61)"
           id="path874" />
        <path
           class="cls-7"
           d="m 266.85,188.61 c -6.21,5.66 -13.6,9.85 -21.12,13.55 a 134.24,134.24 0 0 1 -23.7,8.63 c -8.16,2.11 -16.67,3.7 -25.29,2.92 -8.62,-0.78 -17.43,-3.71 -23.14,-10.17 l 0.27,-0.31 c 7,4.54 15.08,6.14 23.12,6.37 a 108.57,108.57 0 0 0 24.3,-2 132.34,132.34 0 0 0 23.61,-7.3 c 7.63,-3.15 15.18,-6.8 21.68,-12 z"
           transform="translate(-34,-45.61)"
           id="path876" />
      </g>
    </g>
  </g>
</svg>
