<?xml version="1.0" encoding="UTF-8" standalone="no"?>
<svg
   xmlns:dc="http://purl.org/dc/elements/1.1/"
   xmlns:cc="http://creativecommons.org/ns#"
   xmlns:rdf="http://www.w3.org/1999/02/22-rdf-syntax-ns#"
   xmlns:svg="http://www.w3.org/2000/svg"
   xmlns="http://www.w3.org/2000/svg"
   xmlns:sodipodi="http://sodipodi.sourceforge.net/DTD/sodipodi-0.dtd"
   xmlns:inkscape="http://www.inkscape.org/namespaces/inkscape"
   sodipodi:docname="PartnerBlockFolio.svg"
   inkscape:version="1.0 (4035a4fb49, 2020-05-01)"
   id="svg8"
   version="1.1"
   viewBox="0 0 105.83333 39.687501"
   height="150"
   width="400">
  <defs
     id="defs2">
    <style
       id="style833">.cls-1{fill:#4c4c4c;}.cls-2{fill:#8dc63f;}.cls-3{fill:#f9e988;}.cls-4{fill:#fff;}.cls-5{fill:#8bc53f;}.cls-6{fill:#009345;}.cls-7{fill:#58595b;}</style>
  </defs>
  <sodipodi:namedview
     inkscape:window-maximized="0"
     inkscape:window-y="155"
     inkscape:window-x="472"
     inkscape:window-height="1040"
     inkscape:window-width="1274"
     inkscape:guide-bbox="true"
     showguides="true"
     units="px"
     showgrid="false"
     inkscape:document-rotation="0"
     inkscape:current-layer="layer1"
     inkscape:document-units="mm"
     inkscape:cy="212.3349"
     inkscape:cx="281.37807"
     inkscape:zoom="1.4"
     inkscape:pageshadow="2"
     inkscape:pageopacity="0.0"
     borderopacity="1.0"
     bordercolor="#666666"
     pagecolor="#ffffff"
     id="base" />
  <metadata
     id="metadata5">
    <rdf:RDF>
      <cc:Work
         rdf:about="">
        <dc:format>image/svg+xml</dc:format>
        <dc:type
           rdf:resource="http://purl.org/dc/dcmitype/StillImage" />
        <dc:title></dc:title>
      </cc:Work>
    </rdf:RDF>
  </metadata>
  <g
     id="layer1"
     inkscape:groupmode="layer"
     inkscape:label="Layer 1">
    <g
       transform="matrix(0.5729415,0,0,0.5729415,5.4723322,10.660759)"
       id="g926"
       style="fill:none">
      <g
         fill="#000000"
         id="g913">
        <path
           clip-rule="evenodd"
           d="M 103.92,15.708 V 27.13 h -2.799 V 15.708 h -2.563 v -2.45 h 2.567 V 10.92 c 0,-3.086 2.048,-4.76 4.557,-4.76 0.924,0 1.5,0.202 1.621,0.295 v 2.417 c -0.148,-0.057 -0.491,-0.174 -1.179,-0.174 -0.952,0 -2.192,0.462 -2.192,2.366 v 2.194 h 3.346 v 2.451 z M 31.16,27.13 V 6.247 h 2.712 V 27.13 Z M 17.296,6.68 c 3.895,0 6.172,2.307 6.172,5.538 0,2.192 -1.268,3.75 -3.056,4.42 2.336,0.577 3.691,2.651 3.691,4.932 0,3.23 -2.567,5.567 -6.317,5.567 H 10.634 V 6.68 Z m -0.317,8.935 c 2.279,0 3.634,-1.355 3.634,-3.259 0,-1.932 -1.412,-3.202 -3.749,-3.202 H 13.46 v 6.461 z m 0.404,9.034 c 2.279,0 3.83,-1.27 3.83,-3.259 0,-1.962 -1.24,-3.347 -3.72,-3.347 H 13.46 v 6.606 z m 29.752,2.917 c 4.148,0 7.095,-3.144 7.095,-7.384 0,-4.215 -2.947,-7.354 -7.095,-7.354 -4.148,0 -7.095,3.144 -7.095,7.354 0,4.236 2.946,7.384 7.095,7.384 z m 0,-12.316 c 2.308,0 4.326,1.73 4.326,4.932 0,3.226 -2.02,4.962 -4.326,4.962 -2.308,0 -4.326,-1.731 -4.326,-4.962 0,-3.206 2.017,-4.932 4.326,-4.932 z m 16.034,4.932 c 0,3.173 1.99,4.875 4.24,4.875 2.595,0 3.547,-1.759 3.864,-2.855 l 2.394,1.031 c -0.663,1.989 -2.652,4.325 -6.258,4.325 C 63.37,27.562 60.4,24.39 60.4,20.182 c 0,-4.325 3.03,-7.354 6.98,-7.354 3.692,0 5.599,2.307 6.173,4.42 l -2.451,1.03 c -0.346,-1.355 -1.355,-2.946 -3.721,-2.946 -2.193,0 -4.212,1.617 -4.212,4.85 z m 29.214,6.948 -6.029,-8.019 5.914,-5.853 h -3.75 l -6,6.142 V 6.247 H 79.835 V 27.13 h 2.683 v -4.183 l 1.933,-1.932 4.529,6.115 z m 28.176,0.436 c 4.148,0 7.095,-3.144 7.095,-7.384 0,-4.215 -2.947,-7.354 -7.095,-7.354 -4.149,0 -7.095,3.144 -7.095,7.354 0,4.236 2.946,7.384 7.095,7.384 z m 0,-12.316 c 2.307,0 4.326,1.73 4.326,4.932 0,3.226 -2.016,4.962 -4.323,4.962 -2.308,0 -4.327,-1.731 -4.327,-4.962 0,-3.206 2.017,-4.932 4.324,-4.932 z m 13.265,11.88 V 6.247 h 2.711 V 27.13 Z M 145.391,6.465 a 1.34,1.34 0 1 0 -1.465,2.243 1.34,1.34 0 0 0 1.465,-2.243 z m 0.603,6.791 h -2.683 V 27.13 h 2.683 z m 13.871,14.31 c 4.149,0 7.095,-3.144 7.095,-7.384 0,-4.215 -2.945,-7.354 -7.094,-7.354 -4.148,0 -7.095,3.144 -7.095,7.354 0,4.236 2.945,7.384 7.094,7.384 z m 0,-12.316 c 2.308,0 4.327,1.73 4.327,4.932 0,3.226 -2.02,4.962 -4.327,4.962 -2.307,0 -4.325,-1.731 -4.325,-4.962 0,-3.201 2.016,-4.932 4.325,-4.932 z"
           fill-rule="evenodd"
           id="path909" />
        <path
           d="M 30.938,33 H 2.063 A 2.062,2.062 0 0 1 0,30.937 V 2.062 A 2.062,2.062 0 0 1 2.063,0 H 30.938 A 2.063,2.063 0 0 1 33,2.062 V 3.36 H 32.263 V 2.062 A 1.326,1.326 0 0 0 30.937,0.737 H 2.062 A 1.326,1.326 0 0 0 0.737,2.062 v 28.875 a 1.326,1.326 0 0 0 1.325,1.326 h 28.875 a 1.326,1.326 0 0 0 1.326,-1.326 V 30.219 H 33 v 0.718 A 2.062,2.062 0 0 1 30.937,33 Z"
           opacity="0.7"
           id="path911" />
      </g>
    </g>
  </g>
</svg>
