<?xml version="1.0" encoding="UTF-8" standalone="no"?>
<svg
   xmlns:dc="http://purl.org/dc/elements/1.1/"
   xmlns:cc="http://creativecommons.org/ns#"
   xmlns:rdf="http://www.w3.org/1999/02/22-rdf-syntax-ns#"
   xmlns:svg="http://www.w3.org/2000/svg"
   xmlns="http://www.w3.org/2000/svg"
   xmlns:sodipodi="http://sodipodi.sourceforge.net/DTD/sodipodi-0.dtd"
   xmlns:inkscape="http://www.inkscape.org/namespaces/inkscape"
   sodipodi:docname="PartnerDelta.svg"
   inkscape:version="1.0 (4035a4fb49, 2020-05-01)"
   id="svg8"
   version="1.1"
   viewBox="0 0 47.624999 31.750001"
   height="120"
   width="180">
  <defs
     id="defs2">
    <style
       id="style833">.cls-1{fill:#4c4c4c;}.cls-2{fill:#8dc63f;}.cls-3{fill:#f9e988;}.cls-4{fill:#fff;}.cls-5{fill:#8bc53f;}.cls-6{fill:#009345;}.cls-7{fill:#58595b;}</style>
    <style
       id="style959">.cls-1{isolation:isolate;}.cls-2{fill:#ca312c;}.cls-2,.cls-3,.cls-4{fill-rule:evenodd;}.cls-3{fill:#91b949;}.cls-4{fill:#333;}</style>
    <style
       id="style833-5">.cls-1{fill:#4c4c4c;}.cls-2{fill:#8dc63f;}.cls-3{fill:#f9e988;}.cls-4{fill:#fff;}.cls-5{fill:#8bc53f;}.cls-6{fill:#009345;}.cls-7{fill:#58595b;}</style>
  </defs>
  <sodipodi:namedview
     inkscape:window-maximized="0"
     inkscape:window-y="104"
     inkscape:window-x="390"
     inkscape:window-height="871"
     inkscape:window-width="1274"
     inkscape:guide-bbox="true"
     showguides="true"
     units="px"
     showgrid="false"
     inkscape:document-rotation="0"
     inkscape:current-layer="layer1"
     inkscape:document-units="mm"
     inkscape:cy="127.25521"
     inkscape:cx="162.96175"
     inkscape:zoom="0.7"
     inkscape:pageshadow="2"
     inkscape:pageopacity="0.0"
     borderopacity="1.0"
     bordercolor="#666666"
     pagecolor="#ffffff"
     id="base" />
  <metadata
     id="metadata5">
    <rdf:RDF>
      <cc:Work
         rdf:about="">
        <dc:format>image/svg+xml</dc:format>
        <dc:type
           rdf:resource="http://purl.org/dc/dcmitype/StillImage" />
        <dc:title></dc:title>
      </cc:Work>
    </rdf:RDF>
  </metadata>
  <g
     id="layer1"
     inkscape:groupmode="layer"
     inkscape:label="Layer 1">
    <g
       id="g941"
       transform="matrix(0.04595034,0,0,0.04595034,9.8049372,1.6562599)">
      <path
         id="path928"
         d="m 323.5,77 145.7,244.6 c 3.1,5.2 1.4,12 -3.8,15.2 -1.7,1 -3.7,1.6 -5.6,1.6 H 168.4 c -6.1,0 -11,-5 -11,-11.1 0,-2 0.5,-4 1.6,-5.7 L 304.7,77 c 3.1,-5.2 9.9,-6.9 15,-3.8 1.6,0.9 2.9,2.2 3.8,3.8 z m -9.4,27.2 -126.3,212 h 252.7 z" />
      <path
         id="path930"
         d="m 95.8,435.4 c 0,-3.1 0.9,-5.6 2.8,-7.5 1.8,-1.9 4.2,-2.8 6.9,-2.8 2.9,0 5.2,1 7,2.9 1.8,1.9 2.7,4.4 2.7,7.5 v 84.1 c 0,9.7 -2.1,18.6 -6.4,26.6 -4.3,7.9 -10.1,14.2 -17.4,18.8 -7.3,4.6 -15.5,6.9 -24.5,6.9 -9,0 -17.2,-2.3 -24.7,-6.9 -7.4,-4.6 -13.3,-10.8 -17.5,-18.8 -4.2,-7.9 -6.3,-16.8 -6.3,-26.6 0,-9.7 2,-18.6 5.9,-26.5 3.9,-8 9.3,-14.2 16.2,-18.7 6.9,-4.5 14.5,-6.8 23,-6.8 6.8,0 13.1,1.5 19,4.5 5.1,2.6 9.6,6.2 13.4,10.7 V 435.4 Z M 66.9,553.1 c 5.6,0 10.6,-1.5 15.1,-4.4 4.5,-2.9 8.1,-6.9 10.6,-12.1 2.6,-5.1 3.9,-10.9 3.9,-17.3 0,-6.4 -1.3,-12.1 -3.9,-17.2 C 90,497 86.5,493 82,490.1 c -4.5,-2.9 -9.6,-4.4 -15.1,-4.4 -5.5,0 -10.6,1.5 -15.1,4.4 -4.5,2.9 -8.1,6.9 -10.7,12 -2.6,5.1 -3.9,10.8 -3.9,17.1 0,6.4 1.3,12.1 3.9,17.2 2.6,5.1 6.2,9.2 10.7,12.1 4.4,3.2 9.5,4.6 15.1,4.6 z m 131.4,-6.9 c 5.9,5.1 13.1,7.7 21.6,7.7 3.3,0 6.8,-0.7 10.5,-2 3.6,-1.3 6.6,-2.9 9,-4.8 1.8,-1.5 3.9,-2.2 6.2,-2.2 2.4,0 4.3,0.7 5.7,2.1 2.3,2 3.4,4.4 3.4,7 0,2.5 -1.1,4.6 -3.1,6.3 -4,3.4 -8.9,6.1 -14.8,8.3 -5.9,2.1 -11.5,3.2 -16.9,3.2 -9.6,0 -18.2,-2.2 -25.8,-6.7 -7.6,-4.4 -13.6,-10.6 -17.8,-18.5 -4.3,-7.9 -6.4,-16.8 -6.4,-26.8 0,-10 2,-19 6.1,-26.9 4,-8 9.7,-14.2 16.9,-18.6 7.2,-4.4 15.4,-6.7 24.5,-6.7 9,0 16.8,2.1 23.4,6.4 6.6,4.3 11.6,10.2 15.2,17.9 3.5,7.6 5.3,16.4 5.3,26.2 0,2.6 -0.8,4.8 -2.5,6.5 -1.7,1.7 -3.8,2.6 -6.3,2.6 H 188 c 1.2,7.7 4.7,14.1 10.3,19 z m 36.9,-53.9 c -4.5,-4.7 -10.5,-7.1 -17.8,-7.1 -8.2,0 -14.8,2.4 -19.8,7.1 -4.8,4.5 -8,10.6 -9.4,18.1 h 55.3 c -1.2,-7.6 -4,-13.6 -8.3,-18.1 z m 88.5,-57.1 c 0,-2.9 0.9,-5.4 2.7,-7.3 1.8,-1.9 4.1,-2.9 6.8,-2.9 2.8,0 5.1,1 6.8,2.9 1.8,1.9 2.7,4.4 2.7,7.3 v 100.7 c 0,4.4 0.8,8 2.3,10.8 1.5,2.7 3.3,4 5.4,4 h 4.3 c 2.5,0 4.7,1 6.3,2.9 1.6,1.9 2.4,4.3 2.4,7.3 0,3 -1.2,5.5 -3.6,7.4 -2.3,1.8 -5.3,2.8 -9,2.8 h -0.3 c -5.1,0 -9.7,-1.5 -13.9,-4.5 -4.1,-3 -7.3,-7.2 -9.5,-12.6 -2.2,-5.3 -3.4,-11.3 -3.4,-18 z m 123.5,99 c 0,4.7 1.2,8.6 3.6,11.8 2.4,3.1 5.2,4.6 8.6,4.6 h 5.9 c 2.3,0 4.3,1 5.9,2.9 1.6,1.9 2.4,4.3 2.4,7.3 0,3 -1.1,5.5 -3.2,7.4 -2.1,1.9 -4.7,2.8 -7.9,2.8 h -3.1 c -5.8,0 -11.1,-1.6 -15.9,-4.8 -4.8,-3.2 -8.5,-7.6 -11.3,-13.2 -2.7,-5.5 -4.1,-11.8 -4.1,-18.7 v -44.6 h -7 c -2.6,0 -4.8,-0.8 -6.5,-2.5 -1.7,-1.7 -2.5,-3.7 -2.5,-6.2 0,-2.7 0.8,-4.9 2.5,-6.6 1.7,-1.6 3.8,-2.5 6.5,-2.5 h 7 v -25.6 c 0,-2.9 0.9,-5.4 2.7,-7.3 1.8,-1.9 4.1,-2.9 6.8,-2.9 2.8,0 5.1,1 6.8,2.9 1.8,1.9 2.7,4.4 2.7,7.3 v 25.6 H 461 c 2.6,0 4.8,0.8 6.5,2.5 1.7,1.7 2.5,3.9 2.5,6.6 0,2.5 -0.8,4.6 -2.5,6.2 -1.7,1.6 -3.8,2.5 -6.5,2.5 h -13.8 z m 143.2,32.9 c -5.9,3 -12.2,4.5 -19,4.5 -8.4,0 -16.1,-2.3 -23,-6.8 -6.9,-4.5 -12.3,-10.8 -16.2,-18.7 -3.9,-7.9 -5.9,-16.8 -5.9,-26.5 0,-9.7 2.1,-18.6 6.3,-26.6 4.2,-8 10.1,-14.2 17.5,-18.8 7.4,-4.6 15.7,-6.9 24.7,-6.9 9,0 17.2,2.3 24.5,6.9 7.3,4.6 13.1,10.8 17.4,18.8 4.3,8 6.4,16.8 6.4,26.6 v 41.1 c 0,3 -0.9,5.4 -2.8,7.4 -1.8,2 -4.2,3 -6.9,3 -2.7,0 -5.1,-1 -6.9,-3 -1.8,-2 -2.8,-4.4 -2.8,-7.4 v -4.3 c -3.7,4.5 -8.2,8.1 -13.3,10.7 z m -15.5,-14 c 5.6,0 10.6,-1.5 15.1,-4.4 4.5,-2.9 8.1,-6.9 10.6,-12 2.6,-5.1 3.9,-10.8 3.9,-17.2 0,-6.4 -1.3,-12.1 -3.9,-17.3 -2.6,-5.1 -6.1,-9.2 -10.6,-12.1 -4.5,-2.9 -9.6,-4.4 -15.1,-4.4 -5.6,0 -10.6,1.5 -15.1,4.4 -4.5,2.9 -8.1,6.9 -10.7,12.1 -2.6,5.1 -3.9,10.9 -3.9,17.2 0,6.4 1.3,12.1 3.9,17.1 2.6,5.1 6.2,9.1 10.7,12 4.4,3.2 9.5,4.6 15.1,4.6 z" />
    </g>
  </g>
  <style
     type="text/css"
     id="style943">
	.st0{fill:#17181B;}
</style>
  <style
     type="text/css"
     id="style995">
	.st0{fill:#00D665;}
	.st1{fill:#0A1623;}
</style>
</svg>
