<?xml version="1.0" encoding="UTF-8" standalone="no"?>
<svg
   xmlns:dc="http://purl.org/dc/elements/1.1/"
   xmlns:cc="http://creativecommons.org/ns#"
   xmlns:rdf="http://www.w3.org/1999/02/22-rdf-syntax-ns#"
   xmlns:svg="http://www.w3.org/2000/svg"
   xmlns="http://www.w3.org/2000/svg"
   xmlns:sodipodi="http://sodipodi.sourceforge.net/DTD/sodipodi-0.dtd"
   xmlns:inkscape="http://www.inkscape.org/namespaces/inkscape"
   sodipodi:docname="PartnerCMC.svg"
   inkscape:version="1.0 (4035a4fb49, 2020-05-01)"
   id="svg8"
   version="1.1"
   viewBox="0 0 105.83333 39.687501"
   height="150"
   width="400">
  <defs
     id="defs2">
    <style
       id="style833">.cls-1{fill:#4c4c4c;}.cls-2{fill:#8dc63f;}.cls-3{fill:#f9e988;}.cls-4{fill:#fff;}.cls-5{fill:#8bc53f;}.cls-6{fill:#009345;}.cls-7{fill:#58595b;}</style>
  </defs>
  <sodipodi:namedview
     inkscape:window-maximized="0"
     inkscape:window-y="155"
     inkscape:window-x="472"
     inkscape:window-height="1040"
     inkscape:window-width="1274"
     inkscape:guide-bbox="true"
     showguides="true"
     units="px"
     showgrid="false"
     inkscape:document-rotation="0"
     inkscape:current-layer="layer1"
     inkscape:document-units="mm"
     inkscape:cy="210.19205"
     inkscape:cx="192.09235"
     inkscape:zoom="1.4"
     inkscape:pageshadow="2"
     inkscape:pageopacity="0.0"
     borderopacity="1.0"
     bordercolor="#666666"
     pagecolor="#ffffff"
     id="base" />
  <metadata
     id="metadata5">
    <rdf:RDF>
      <cc:Work
         rdf:about="">
        <dc:format>image/svg+xml</dc:format>
        <dc:type
           rdf:resource="http://purl.org/dc/dcmitype/StillImage" />
        <dc:title></dc:title>
      </cc:Work>
    </rdf:RDF>
  </metadata>
  <g
     id="layer1"
     inkscape:groupmode="layer"
     inkscape:label="Layer 1">
    <g
       transform="matrix(0.17118805,0,0,0.17118805,-1.9593224,-35.098713)"
       id="g947">
	<path
   class="st0"
   d="m 108.6,331.6 c -1.8,1.1 -3.9,1.3 -5.5,0.4 -2,-1.2 -3.2,-3.9 -3.2,-7.6 v -11.3 c 0,-5.4 -2.1,-9.3 -5.7,-10.3 -6.1,-1.8 -10.7,5.7 -12.4,8.5 L 71,328.6 v -21.3 c -0.1,-4.9 -1.7,-7.8 -4.7,-8.7 -2,-0.6 -5,-0.3 -7.9,4.1 l -24.1,38.6 c -3.2,-6.1 -4.9,-12.9 -4.9,-19.8 0,-23.3 18.7,-42.2 41.6,-42.2 22.9,0 41.6,18.9 41.6,42.2 0,0 0,0.1 0,0.1 0,0 0,0.1 0,0.1 0.2,4.5 -1.2,8.1 -4,9.9 z m 13.2,-10.1 v 0 -0.1 -0.1 C 121.7,293 98.9,269.9 71,269.9 c -28,0 -50.8,23.1 -50.8,51.6 0,28.4 22.8,51.6 50.8,51.6 12.9,0 25.1,-4.9 34.5,-13.8 1.9,-1.8 2,-4.7 0.2,-6.6 -1.7,-1.9 -4.6,-2 -6.5,-0.3 0,0 0,0 -0.1,0.1 -7.6,7.2 -17.8,11.3 -28.3,11.3 -12.3,0 -23.3,-5.4 -30.9,-14 L 61.6,315 v 16.1 c 0,7.7 3,10.2 5.5,10.9 2.5,0.7 6.3,0.2 10.4,-6.3 l 11.9,-19.3 c 0.4,-0.6 0.7,-1.2 1.1,-1.6 v 9.8 c 0,7.2 2.9,13 7.9,15.8 4.5,2.6 10.2,2.3 14.9,-0.6 5.8,-3.8 8.9,-10.4 8.5,-18.3 z m 70.8,-17.6 c 1.2,0.7 2.3,2.4 2.3,3.9 0,2.4 -2,4.4 -4.3,4.4 -0.6,0 -1.1,-0.2 -1.6,-0.3 -2.7,-2 -6.1,-3.3 -9.7,-3.3 -8.5,0 -14.3,6.9 -14.3,15.5 0,8.6 5.9,15.4 14.3,15.4 4.2,0 8,-1.7 10.8,-4.4 0.7,-0.5 1.6,-0.8 2.5,-0.8 2.3,0 4.1,1.8 4.1,4.1 0,1.5 -0.9,2.8 -2,3.5 -4.1,3.5 -9.6,5.8 -15.3,5.8 -13,0 -23.6,-10.7 -23.6,-23.9 0,-13.2 10.6,-23.9 23.6,-23.9 4.8,-0.1 9.4,1.4 13.2,4 z m 23.8,10 c 8.9,0 16.3,7.5 16.3,16.8 0,9.2 -7.5,17.1 -16.3,17.1 -9.3,0 -17,-7.8 -17,-17.1 0,-9.3 7.7,-16.8 17,-16.8 z m -0.1,25.6 c 3.9,0 7.2,-3.7 7.2,-8.7 0,-5 -3.3,-8.2 -7.2,-8.2 -4.2,0 -7.7,3.1 -7.7,8.2 0,4.9 3.5,8.7 7.7,8.7 z m 22,3.1 V 319 c 0,-2.6 2,-4.7 4.6,-4.7 2.5,0 4.6,2.1 4.6,4.7 v 23.6 c 0,2.6 -2.1,4.7 -4.6,4.7 -2.5,0 -4.6,-2.2 -4.6,-4.7 z m -0.7,-37.2 c 0,-3.1 2.4,-5.5 5.3,-5.5 3,0 5.4,2.5 5.4,5.5 0,3 -2.4,5.4 -5.4,5.4 -3,-0.1 -5.3,-2.5 -5.3,-5.4 z m 27.5,24.4 v 12.8 c 0,2.6 -2.1,4.7 -4.6,4.7 -2.5,0 -4.6,-2.1 -4.6,-4.7 v -24.7 c 0,-2 1.6,-3.6 3.6,-3.6 2,0 3.5,1.7 3.5,3.6 3.7,-3.5 7,-4 10.1,-4 9.2,0 13.3,6.9 13.3,14.8 v 13.9 c 0,2.6 -2.1,4.7 -4.6,4.7 -2.5,0 -4.6,-2.1 -4.6,-4.7 v -12.8 c 0,-4 -0.5,-7.4 -6.3,-7.4 -4.1,0 -5.8,3.4 -5.8,7.4 z m 51.1,4.9 c -1.1,0 -1.8,-0.5 -2.4,-1.2 l -10.7,-11.6 v 20.7 c 0,2.6 -2.1,4.7 -4.6,4.7 -2.5,0 -4.6,-2.1 -4.6,-4.7 v -41 c 0.3,-0.7 1,-1.2 1.7,-1.2 0.8,0 1.5,0.7 2,1.2 l 17.1,19.2 c 0.5,0.6 1.1,0.9 1.5,0.9 0.3,0 1,-0.3 1.5,-0.9 l 17.1,-19.2 c 0.5,-0.5 1.1,-1.2 2,-1.2 0.8,0 1.5,0.5 1.7,1.2 v 41 c 0,2.6 -2,4.7 -4.6,4.7 -2.5,0 -4.6,-2.1 -4.6,-4.7 v -20.7 l -10.7,11.6 c -0.8,0.7 -1.5,1.2 -2.4,1.2 z m 44.2,4.8 c 4.1,0 7.6,-3.7 7.6,-8.7 0,-5 -3.6,-8.3 -7.6,-8.3 -4,0 -7.3,3.4 -7.3,8.3 0,4.8 3.2,8.7 7.3,8.7 z m 9.8,4.2 -0.2,-1.1 c -1.8,3.5 -7.5,5.1 -11.1,5.1 -8.6,0 -15,-7.8 -15,-17.1 0,-9.2 6.5,-16.8 15.5,-16.8 1.5,0 6.7,0.4 10.7,5.1 l 0.2,-1.1 c 0,-2 1.5,-3.6 3.5,-3.6 2,0 3.6,1.7 3.6,3.6 v 25.8 c 0,2 -1.6,3.6 -3.6,3.6 -2.1,0.1 -3.6,-1.6 -3.6,-3.5 z m 32.5,-21.3 h -1 c -5.8,0.3 -6.9,3.6 -6.9,7.4 v 12.8 c 0,2.6 -2.1,4.7 -4.6,4.7 -2.5,0 -4.6,-2.1 -4.6,-4.7 v -24.7 c 0,-2 1.6,-3.6 3.6,-3.6 2,0 3.5,1.7 3.5,3.6 3.4,-3.2 6.2,-3.9 9,-4 h 0.9 c 2.2,0 4.2,1.9 4.2,4.3 0.1,2.2 -1.9,4.2 -4.1,4.2 z m 35.5,18 c 0.4,0.7 0.7,1.4 0.7,2.2 0,2.4 -2.2,4.6 -4.6,4.6 -1.6,0 -3,-1.2 -4.1,-2.6 l -10.6,-12.3 v 10.2 c 0,2.6 -2.1,4.7 -4.6,4.7 -2.5,0 -4.6,-2.1 -4.6,-4.7 V 305 c 0,-2.6 2,-4.7 4.6,-4.7 2.6,0 4.6,2.1 4.6,4.7 v 23.4 l 10.6,-11.7 c 1.1,-1.2 2.4,-2.5 4,-2.5 2.3,0 4.4,2.1 4.4,4.5 0,0.7 -0.2,1.5 -0.6,2.1 l -8.4,9.2 z m 18,-17.9 c -2.5,0 -6.6,1.3 -6.6,5.2 h 13.3 c -0.1,-3.9 -4.3,-5.2 -6.7,-5.2 z m 12,11.1 h -18.6 c 0,5.5 5.3,6.4 7.6,6.4 1.7,0 4.1,-0.3 6,-1.2 0.6,-0.4 1.5,-0.7 2.4,-0.7 2,0 3.7,1.7 3.7,3.8 0,1.4 -0.9,2.6 -2,3.3 -2.8,2.1 -6.5,2.6 -10,2.6 -9.3,0 -17,-5 -17,-16.7 0,-9.2 4.7,-17.2 15.7,-17.2 8.9,0 15.6,5.8 15.8,16.1 0,1.9 -1.6,3.6 -3.6,3.6 z m 25.6,14.1 h -2.5 c -7,0 -11.1,-3.1 -11.1,-14 v -11.3 h -2.4 c -2.2,0 -4.1,-2 -4.1,-4.2 0,-2.4 2,-4.3 4.1,-4.3 h 2.4 v -8.7 c 0,-2.6 2,-4.7 4.6,-4.7 2.5,0 4.6,2.1 4.6,4.7 v 8.7 h 3.8 c 2.2,0 4.1,1.9 4.1,4.3 0,2.2 -2,4.2 -4.1,4.2 h -3.8 v 9.5 c 0,6.3 0.3,7.6 3.1,7.6 h 1.3 c 2.2,0 4.1,1.8 4.1,4.1 0,2.2 -1.9,4.1 -4.1,4.1 z m 44.5,-43.8 c 1.2,0.7 2.3,2.4 2.3,3.9 0,2.4 -2,4.4 -4.3,4.4 -0.6,0 -1.1,-0.2 -1.6,-0.3 -2.7,-2 -6.1,-3.3 -9.7,-3.3 -8.5,0 -14.3,6.9 -14.3,15.5 0,8.6 5.9,15.4 14.3,15.4 4.2,0 8,-1.7 10.8,-4.4 0.7,-0.5 1.6,-0.8 2.5,-0.8 2.3,0 4.1,1.8 4.1,4.1 0,1.5 -0.9,2.8 -2,3.5 -4.1,3.5 -9.6,5.8 -15.3,5.8 -13,0 -23.6,-10.7 -23.6,-23.9 0,-13.2 10.6,-23.9 23.6,-23.9 4.8,-0.1 9.5,1.4 13.2,4 z m 23.3,35.6 c 4.1,0 7.6,-3.7 7.6,-8.7 0,-5 -3.6,-8.3 -7.6,-8.3 -4.1,0 -7.3,3.4 -7.3,8.3 0,4.8 3.3,8.7 7.3,8.7 z m 9.8,4.2 -0.2,-1.1 c -1.8,3.5 -7.5,5.1 -11.1,5.1 -8.6,0 -15,-7.8 -15,-17.1 0,-9.2 6.5,-16.8 15.5,-16.8 1.5,0 6.7,0.4 10.7,5.1 l 0.2,-1.1 c 0,-2 1.5,-3.6 3.5,-3.6 2,0 3.6,1.7 3.6,3.6 v 25.8 c 0,2 -1.6,3.6 -3.6,3.6 -2.1,0.1 -3.6,-1.6 -3.6,-3.5 z m 32.3,-4.2 c 4.1,0 7.3,-3.9 7.3,-8.7 0,-5 -3.3,-8.3 -7.3,-8.3 -4.1,0 -7.6,3.3 -7.6,8.3 0,5 3.5,8.7 7.6,8.7 z m -7.6,5.5 v 11.7 c 0,2.6 -2.1,4.7 -4.6,4.7 -2.5,0 -4.6,-2.1 -4.6,-4.7 v -38.8 c 0,-2 1.6,-3.6 3.6,-3.6 2,0 3.5,1.7 3.5,4 3.4,-3.5 7.6,-4.4 10.8,-4.4 8.9,0 15.5,7.5 15.5,16.8 0,9.2 -6.3,17.1 -15,17.1 -2.7,-0.1 -6.7,-0.9 -9.2,-2.8 z"
   id="path945" />

</g>
  </g>
  <style
     type="text/css"
     id="style943">
	.st0{fill:#17181B;}
</style>
</svg>
