<?xml version="1.0" encoding="UTF-8" standalone="no"?>
<svg
   xmlns:dc="http://purl.org/dc/elements/1.1/"
   xmlns:cc="http://creativecommons.org/ns#"
   xmlns:rdf="http://www.w3.org/1999/02/22-rdf-syntax-ns#"
   xmlns:svg="http://www.w3.org/2000/svg"
   xmlns="http://www.w3.org/2000/svg"
   xmlns:sodipodi="http://sodipodi.sourceforge.net/DTD/sodipodi-0.dtd"
   xmlns:inkscape="http://www.inkscape.org/namespaces/inkscape"
   sodipodi:docname="PartnerCoinPaprika.svg"
   inkscape:version="1.0 (4035a4fb49, 2020-05-01)"
   id="svg8"
   version="1.1"
   viewBox="0 0 84.666665 31.750001"
   height="120"
   width="320">
  <defs
     id="defs2">
    <style
       id="style833">.cls-1{fill:#4c4c4c;}.cls-2{fill:#8dc63f;}.cls-3{fill:#f9e988;}.cls-4{fill:#fff;}.cls-5{fill:#8bc53f;}.cls-6{fill:#009345;}.cls-7{fill:#58595b;}</style>
    <style
       id="style959">.cls-1{isolation:isolate;}.cls-2{fill:#ca312c;}.cls-2,.cls-3,.cls-4{fill-rule:evenodd;}.cls-3{fill:#91b949;}.cls-4{fill:#333;}</style>
    <style
       id="style833-5">.cls-1{fill:#4c4c4c;}.cls-2{fill:#8dc63f;}.cls-3{fill:#f9e988;}.cls-4{fill:#fff;}.cls-5{fill:#8bc53f;}.cls-6{fill:#009345;}.cls-7{fill:#58595b;}</style>
    <style
       id="style833-4">.cls-1{fill:#4c4c4c;}.cls-2{fill:#8dc63f;}.cls-3{fill:#f9e988;}.cls-4{fill:#fff;}.cls-5{fill:#8bc53f;}.cls-6{fill:#009345;}.cls-7{fill:#58595b;}</style>
    <style
       id="style959-0">.cls-1{isolation:isolate;}.cls-2{fill:#ca312c;}.cls-2,.cls-3,.cls-4{fill-rule:evenodd;}.cls-3{fill:#91b949;}.cls-4{fill:#333;}</style>
    <style
       id="style833-0">.cls-1{fill:#4c4c4c;}.cls-2{fill:#8dc63f;}.cls-3{fill:#f9e988;}.cls-4{fill:#fff;}.cls-5{fill:#8bc53f;}.cls-6{fill:#009345;}.cls-7{fill:#58595b;}</style>
    <style
       id="style959-7">.cls-1{isolation:isolate;}.cls-2{fill:#ca312c;}.cls-2,.cls-3,.cls-4{fill-rule:evenodd;}.cls-3{fill:#91b949;}.cls-4{fill:#333;}</style>
  </defs>
  <sodipodi:namedview
     inkscape:window-maximized="0"
     inkscape:window-y="104"
     inkscape:window-x="390"
     inkscape:window-height="871"
     inkscape:window-width="1274"
     inkscape:guide-bbox="true"
     showguides="true"
     units="px"
     showgrid="false"
     inkscape:document-rotation="0"
     inkscape:current-layer="layer1"
     inkscape:document-units="mm"
     inkscape:cy="127.25521"
     inkscape:cx="162.96175"
     inkscape:zoom="0.7"
     inkscape:pageshadow="2"
     inkscape:pageopacity="0.0"
     borderopacity="1.0"
     bordercolor="#666666"
     pagecolor="#ffffff"
     id="base" />
  <metadata
     id="metadata5">
    <rdf:RDF>
      <cc:Work
         rdf:about="">
        <dc:format>image/svg+xml</dc:format>
        <dc:type
           rdf:resource="http://purl.org/dc/dcmitype/StillImage" />
        <dc:title></dc:title>
      </cc:Work>
    </rdf:RDF>
  </metadata>
  <g
     id="layer1"
     inkscape:groupmode="layer"
     inkscape:label="Layer 1">
    <g
       data-name="Layer 2"
       id="Layer_2"
       transform="matrix(0.46476453,0,0,0.46476453,3.0104279,8.9626286)">
      <g
         class="cls-1"
         data-name="Shape 6 copy 12"
         id="Shape_6_copy_12">
        <g
           data-name="Shape 6 copy 12"
           id="Shape_6_copy_12-2">
          <path
             id="path965"
             d="M 26.38,9.72 A 4.33,4.33 0 0 0 25.32,7.92 C 23.11,5.46 21.08,4.53 17.72,6.09 H 17.55 A 2.89,2.89 0 0 0 14.87,8.27 C 13.63,11.84 12.3,15.37 11,18.91 v 0 c -0.19,0.26 -0.38,0.52 -0.58,0.77 -2.38,1.75 -4.68,3.38 -8,2 -1.21,-0.49 -3.18,-0.34 -2.15,2.13 a 1.32,1.32 0 0 0 0.5,0.83 4,4 0 0 0 1.09,0.83 c 4.63,3 9.7,3.66 14.59,1.3 5.55,-2.67 9.59,-6.89 10,-13.51 A 9.76,9.76 0 0 0 26.38,9.72 Z"
             class="cls-2" />
        </g>
      </g>
      <g
         class="cls-1"
         data-name="Shape 7 copy 12"
         id="Shape_7_copy_12">
        <g
           data-name="Shape 7 copy 12"
           id="Shape_7_copy_12-2">
          <path
             id="path969"
             d="m 24.4,6.23 a 19,19 0 0 1 0.3,-2.75 c 0.28,-2.38 -1,-3.41 -2,-3.47 a 3.37,3.37 0 0 0 -2.59,1 A 0.93,0.93 0 0 0 20,2.27 c 0.47,0.49 0.88,0.48 1.15,-0.54 0.45,-1.65 2.37,0 2.31,0.84 -0.1,1.68 -1.31,2.31 -2.37,3 C 20.03,6.26 19,6.41 17.27,7 a 0.57,0.57 0 0 0 -0.06,1 4.27,4.27 0 0 0 1.33,0 c 1.41,-0.23 1.84,0.19 2.28,1.58 A 4.49,4.49 0 0 1 23.56,9.2 c 0.93,0.34 0.94,0.91 1.26,1.31 a 0.4,0.4 0 0 0 0.53,-0.4 7.23,7.23 0 0 1 -0.95,-3.88 z"
             class="cls-3" />
        </g>
      </g>
      <g
         class="cls-1"
         data-name="coinpaprika copy 7"
         id="coinpaprika_copy_7">
        <g
           data-name="coinpaprika copy 7"
           id="coinpaprika_copy_7-2">
          <path
             id="path973"
             d="m 42.09,20.54 a 7.05,7.05 0 0 1 -0.8,0.15 6.76,6.76 0 0 1 -0.76,0 3.65,3.65 0 0 1 -1.35,-0.24 3.07,3.07 0 0 1 -1,-0.7 3.43,3.43 0 0 1 -0.67,-1.11 4.55,4.55 0 0 1 -0.23,-1.48 4.46,4.46 0 0 1 0.22,-1.45 3.14,3.14 0 0 1 0.63,-1.12 2.82,2.82 0 0 1 1,-0.72 3.36,3.36 0 0 1 1.38,-0.26 6.76,6.76 0 0 1 1.55,0.19 7.1,7.1 0 0 1 1.51,0.54 v -2.62 a 10.46,10.46 0 0 0 -1.37,-0.3 12.2,12.2 0 0 0 -1.87,-0.12 6.76,6.76 0 0 0 -2.48,0.43 5.3,5.3 0 0 0 -3.12,3.12 6.85,6.85 0 0 0 -0.44,2.49 7.38,7.38 0 0 0 0.4,2.51 4.73,4.73 0 0 0 3,2.92 7.4,7.4 0 0 0 2.44,0.37 9.71,9.71 0 0 0 1.8,-0.14 8.08,8.08 0 0 0 1.68,-0.48 v -2.47 a 6.93,6.93 0 0 1 -0.73,0.27 c -0.26,0.08 -0.52,0.16 -0.79,0.22 z m 13.83,-7.81 a 4.43,4.43 0 0 0 -1.7,-1.12 6.51,6.51 0 0 0 -2.29,-0.38 6.14,6.14 0 0 0 -2.37,0.44 4.92,4.92 0 0 0 -1.77,1.22 5.33,5.33 0 0 0 -1.12,1.91 7.46,7.46 0 0 0 -0.39,2.48 8.36,8.36 0 0 0 0.37,2.58 4.82,4.82 0 0 0 1.08,1.85 4.32,4.32 0 0 0 1.7,1.12 6.73,6.73 0 0 0 2.28,0.37 6.21,6.21 0 0 0 2.39,-0.44 5,5 0 0 0 1.77,-1.24 A 5.47,5.47 0 0 0 57,19.59 7.44,7.44 0 0 0 57.39,17.12 8.14,8.14 0 0 0 57,14.58 4.82,4.82 0 0 0 55.92,12.73 Z m -1.59,5.89 a 3.52,3.52 0 0 1 -0.47,1.15 2.16,2.16 0 0 1 -0.82,0.77 2.42,2.42 0 0 1 -1.2,0.28 2.37,2.37 0 0 1 -2,-0.91 4.3,4.3 0 0 1 -0.72,-2.7 6.26,6.26 0 0 1 0.15,-1.4 3.27,3.27 0 0 1 0.48,-1.14 2.47,2.47 0 0 1 0.83,-0.78 2.6,2.6 0 0 1 1.23,-0.28 2.32,2.32 0 0 1 2,0.9 4.43,4.43 0 0 1 0.67,2.68 6,6 0 0 1 -0.15,1.43 z m 9.07,-9 A 1.75,1.75 0 0 0 64,10 1.9,1.9 0 0 0 65.43,10 1.75,1.75 0 0 0 66,9.61 1.7,1.7 0 0 0 66.34,9 1.8,1.8 0 0 0 66.34,7.61 1.85,1.85 0 0 0 66,7.07 1.92,1.92 0 0 0 65.43,6.68 1.9,1.9 0 0 0 64,6.68 1.92,1.92 0 0 0 63.43,7.07 1.72,1.72 0 0 0 63.05,7.65 1.8,1.8 0 0 0 63,9 1.59,1.59 0 0 0 63.4,9.61 Z m 2.85,1.87 h -6 v 2.14 h 3.24 V 20.8 H 59.8 v 2.14 h 9.76 V 20.8 h -3.31 z m 14.89,0.85 a 2.94,2.94 0 0 0 -1.09,-0.81 3.85,3.85 0 0 0 -1.54,-0.29 4.45,4.45 0 0 0 -1.14,0.14 3.89,3.89 0 0 0 -0.94,0.39 4.06,4.06 0 0 0 -0.82,0.61 9.52,9.52 0 0 0 -0.73,0.8 l -0.07,-1.69 h -2.38 v 11.45 h 2.76 v -7.25 a 9.91,9.91 0 0 1 1.34,-1.54 2,2 0 0 1 1.34,-0.56 c 0.93,0 1.4,0.63 1.4,1.88 v 7.47 H 82 v -7.69 a 5.75,5.75 0 0 0 -0.22,-1.66 3.6,3.6 0 0 0 -0.64,-1.26 z m 13.2,0.46 A 3.72,3.72 0 0 0 93,11.64 a 3.92,3.92 0 0 0 -1.81,-0.41 4.45,4.45 0 0 0 -1.14,0.14 4,4 0 0 0 -0.95,0.39 4.3,4.3 0 0 0 -0.81,0.61 8.07,8.07 0 0 0 -0.73,0.8 l -0.07,-1.69 h -2.36 v 15.93 h 2.75 v -4.47 a 5.72,5.72 0 0 0 0.78,0.14 6.22,6.22 0 0 0 0.86,0.06 7.17,7.17 0 0 0 2.36,-0.37 5,5 0 0 0 1.87,-1.12 A 5.16,5.16 0 0 0 95,19.73 7.64,7.64 0 0 0 95.44,17 9.3,9.3 0 0 0 95.16,14.6 5.54,5.54 0 0 0 94.34,12.79 Z m -2,5.94 a 3.58,3.58 0 0 1 -0.58,1.21 2.65,2.65 0 0 1 -0.91,0.76 2.52,2.52 0 0 1 -1.19,0.28 6.37,6.37 0 0 1 -1,-0.08 4.29,4.29 0 0 1 -0.81,-0.21 v -5 a 10.46,10.46 0 0 1 1.35,-1.54 2,2 0 0 1 1.34,-0.56 1.6,1.6 0 0 1 1.46,0.82 3.53,3.53 0 0 1 0.39,1.1 8.24,8.24 0 0 1 0.13,1.61 5.77,5.77 0 0 1 -0.17,1.6 z m 13.87,-6.53 a 4.17,4.17 0 0 0 -1.51,-0.73 8.72,8.72 0 0 0 -2.19,-0.24 11,11 0 0 0 -2.24,0.22 10.77,10.77 0 0 0 -1.9,0.54 v 2.2 a 10.1,10.1 0 0 1 1.92,-0.65 8.35,8.35 0 0 1 2,-0.23 3.71,3.71 0 0 1 1.08,0.13 1.91,1.91 0 0 1 0.72,0.39 1.48,1.48 0 0 1 0.4,0.6 2.47,2.47 0 0 1 0.12,0.79 v 0.69 h -1.5 a 10.08,10.08 0 0 0 -2.48,0.28 5.55,5.55 0 0 0 -1.75,0.78 3.2,3.2 0 0 0 -1,1.19 3.28,3.28 0 0 0 -0.35,1.5 4.44,4.44 0 0 0 0.23,1.44 3.11,3.11 0 0 0 0.69,1.12 3.33,3.33 0 0 0 1.11,0.72 4.34,4.34 0 0 0 1.55,0.26 5.78,5.78 0 0 0 1.22,-0.13 4.65,4.65 0 0 0 1,-0.37 4.32,4.32 0 0 0 0.87,-0.56 8.29,8.29 0 0 0 0.76,-0.7 l 0.07,1.5 h 2.35 v -7.84 a 4.66,4.66 0 0 0 -0.28,-1.7 3,3 0 0 0 -0.88,-1.21 z m -1.6,7.21 a 8.39,8.39 0 0 1 -1.36,1.19 2.18,2.18 0 0 1 -1.2,0.42 1.86,1.86 0 0 1 -1.23,-0.37 1.29,1.29 0 0 1 -0.45,-1.06 1.66,1.66 0 0 1 0.14,-0.66 1.37,1.37 0 0 1 0.45,-0.55 2.15,2.15 0 0 1 0.79,-0.37 4.38,4.38 0 0 1 1.18,-0.14 h 1.68 z m 15.12,-6.62 a 3.67,3.67 0 0 0 -1.33,-1.15 3.88,3.88 0 0 0 -1.8,-0.41 4.45,4.45 0 0 0 -1.14,0.14 4,4 0 0 0 -1,0.39 4.71,4.71 0 0 0 -0.82,0.61 8,8 0 0 0 -0.72,0.8 l -0.07,-1.69 h -2.38 v 15.92 h 2.75 v -4.47 a 5.21,5.21 0 0 0 0.78,0.14 6.11,6.11 0 0 0 0.86,0.06 7.11,7.11 0 0 0 2.35,-0.37 5,5 0 0 0 1.88,-1.12 5.27,5.27 0 0 0 1.24,-1.92 7.41,7.41 0 0 0 0.45,-2.72 9.76,9.76 0 0 0 -0.28,-2.4 5.75,5.75 0 0 0 -0.76,-1.82 z m -2,5.94 a 3.78,3.78 0 0 1 -0.58,1.21 2.68,2.68 0 0 1 -0.92,0.76 2.46,2.46 0 0 1 -1.19,0.28 6.24,6.24 0 0 1 -1,-0.08 4.29,4.29 0 0 1 -0.81,-0.21 v -5 a 9.91,9.91 0 0 1 1.35,-1.54 2,2 0 0 1 1.34,-0.56 1.6,1.6 0 0 1 1.46,0.82 3.53,3.53 0 0 1 0.38,1.1 7.47,7.47 0 0 1 0.14,1.61 6.17,6.17 0 0 1 -0.15,1.6 z m 14.75,-6.31 a 2.84,2.84 0 0 0 -1.12,-0.89 3.78,3.78 0 0 0 -1.54,-0.3 4.81,4.81 0 0 0 -1.17,0.14 3.72,3.72 0 0 0 -1,0.39 4.22,4.22 0 0 0 -0.79,0.6 4.51,4.51 0 0 0 -0.64,0.79 l -0.1,-1.67 h -2.49 v 11.45 h 2.82 v -7.25 a 7.19,7.19 0 0 1 1.49,-1.69 2.09,2.09 0 0 1 1.25,-0.5 1.35,1.35 0 0 1 0.62,0.14 1.11,1.11 0 0 1 0.46,0.43 2.2,2.2 0 0 1 0.27,0.74 4.58,4.58 0 0 1 0.06,1.09 h 2.77 a 7.53,7.53 0 0 0 -0.19,-2 3.85,3.85 0 0 0 -0.68,-1.48 z m 7.09,-2.81 a 1.75,1.75 0 0 0 0.57,0.39 1.9,1.9 0 0 0 1.43,0 1.75,1.75 0 0 0 0.57,-0.39 1.7,1.7 0 0 0 0.37,-0.57 1.8,1.8 0 0 0 0,-1.39 1.85,1.85 0 0 0 -0.37,-0.58 1.92,1.92 0 0 0 -0.57,-0.39 1.9,1.9 0 0 0 -1.43,0 1.92,1.92 0 0 0 -0.57,0.39 1.72,1.72 0 0 0 -0.38,0.58 1.8,1.8 0 0 0 0,1.39 1.59,1.59 0 0 0 0.4,0.56 z m 2.85,1.87 h -6.05 v 2.14 h 3.23 V 20.8 H 136 v 2.14 h 9.76 V 20.8 h -3.31 z m 16.49,0 h -3.44 l -4,4.85 V 7 h -2.75 v 15.94 h 2.75 v -5.73 l 4.23,5.73 h 3.6 l -5,-6.24 z m 11.65,1.93 a 3,3 0 0 0 -0.87,-1.21 4.17,4.17 0 0 0 -1.51,-0.73 8.72,8.72 0 0 0 -2.19,-0.24 10.81,10.81 0 0 0 -2.23,0.22 10.3,10.3 0 0 0 -1.9,0.54 v 2.2 a 9.78,9.78 0 0 1 1.91,-0.65 8.35,8.35 0 0 1 2,-0.23 3.71,3.71 0 0 1 1.08,0.13 1.91,1.91 0 0 1 0.72,0.39 1.48,1.48 0 0 1 0.4,0.6 2.47,2.47 0 0 1 0.12,0.79 v 0.69 h -1.5 a 9.94,9.94 0 0 0 -2.47,0.28 5.51,5.51 0 0 0 -1.76,0.78 3.2,3.2 0 0 0 -1,1.19 3.28,3.28 0 0 0 -0.35,1.5 4.18,4.18 0 0 0 0.24,1.44 3,3 0 0 0 0.68,1.12 3.33,3.33 0 0 0 1.11,0.72 4.34,4.34 0 0 0 1.55,0.26 5.78,5.78 0 0 0 1.22,-0.13 4.65,4.65 0 0 0 1,-0.37 4.32,4.32 0 0 0 0.87,-0.56 7.16,7.16 0 0 0 0.76,-0.7 l 0.07,1.5 h 2.35 v -7.84 a 4.66,4.66 0 0 0 -0.28,-1.7 z m -2.47,6 a 8,8 0 0 1 -1.36,1.19 2.18,2.18 0 0 1 -1.2,0.42 1.86,1.86 0 0 1 -1.23,-0.37 1.29,1.29 0 0 1 -0.45,-1.06 1.66,1.66 0 0 1 0.14,-0.66 1.56,1.56 0 0 1 0.45,-0.55 2.15,2.15 0 0 1 0.79,-0.37 4.38,4.38 0 0 1 1.18,-0.14 h 1.68 z"
             class="cls-4" />
        </g>
      </g>
    </g>
  </g>
  <style
     type="text/css"
     id="style943">
	.st0{fill:#17181B;}
</style>
  <style
     type="text/css"
     id="style995">
	.st0{fill:#00D665;}
	.st1{fill:#0A1623;}
</style>
  <style
     type="text/css"
     id="style943-2">
	.st0{fill:#17181B;}
</style>
  <style
     type="text/css"
     id="style995-2">
	.st0{fill:#00D665;}
	.st1{fill:#0A1623;}
</style>
  <style
     type="text/css"
     id="style943-0">
	.st0{fill:#17181B;}
</style>
</svg>
