<?xml version="1.0" encoding="UTF-8" standalone="no"?>
<svg
   xmlns:dc="http://purl.org/dc/elements/1.1/"
   xmlns:cc="http://creativecommons.org/ns#"
   xmlns:rdf="http://www.w3.org/1999/02/22-rdf-syntax-ns#"
   xmlns:svg="http://www.w3.org/2000/svg"
   xmlns="http://www.w3.org/2000/svg"
   xmlns:sodipodi="http://sodipodi.sourceforge.net/DTD/sodipodi-0.dtd"
   xmlns:inkscape="http://www.inkscape.org/namespaces/inkscape"
   sodipodi:docname="PartnerCryptoCompare.svg"
   inkscape:version="1.0 (4035a4fb49, 2020-05-01)"
   id="svg8"
   version="1.1"
   viewBox="0 0 84.666665 31.750001"
   height="120"
   width="320">
  <defs
     id="defs2">
    <style
       id="style833">.cls-1{fill:#4c4c4c;}.cls-2{fill:#8dc63f;}.cls-3{fill:#f9e988;}.cls-4{fill:#fff;}.cls-5{fill:#8bc53f;}.cls-6{fill:#009345;}.cls-7{fill:#58595b;}</style>
    <style
       id="style959">.cls-1{isolation:isolate;}.cls-2{fill:#ca312c;}.cls-2,.cls-3,.cls-4{fill-rule:evenodd;}.cls-3{fill:#91b949;}.cls-4{fill:#333;}</style>
    <style
       id="style833-5">.cls-1{fill:#4c4c4c;}.cls-2{fill:#8dc63f;}.cls-3{fill:#f9e988;}.cls-4{fill:#fff;}.cls-5{fill:#8bc53f;}.cls-6{fill:#009345;}.cls-7{fill:#58595b;}</style>
    <style
       id="style833-4">.cls-1{fill:#4c4c4c;}.cls-2{fill:#8dc63f;}.cls-3{fill:#f9e988;}.cls-4{fill:#fff;}.cls-5{fill:#8bc53f;}.cls-6{fill:#009345;}.cls-7{fill:#58595b;}</style>
    <style
       id="style959-0">.cls-1{isolation:isolate;}.cls-2{fill:#ca312c;}.cls-2,.cls-3,.cls-4{fill-rule:evenodd;}.cls-3{fill:#91b949;}.cls-4{fill:#333;}</style>
  </defs>
  <sodipodi:namedview
     inkscape:window-maximized="0"
     inkscape:window-y="104"
     inkscape:window-x="390"
     inkscape:window-height="871"
     inkscape:window-width="1274"
     inkscape:guide-bbox="true"
     showguides="true"
     units="px"
     showgrid="false"
     inkscape:document-rotation="0"
     inkscape:current-layer="layer1"
     inkscape:document-units="mm"
     inkscape:cy="127.25521"
     inkscape:cx="162.96175"
     inkscape:zoom="0.7"
     inkscape:pageshadow="2"
     inkscape:pageopacity="0.0"
     borderopacity="1.0"
     bordercolor="#666666"
     pagecolor="#ffffff"
     id="base" />
  <metadata
     id="metadata5">
    <rdf:RDF>
      <cc:Work
         rdf:about="">
        <dc:format>image/svg+xml</dc:format>
        <dc:type
           rdf:resource="http://purl.org/dc/dcmitype/StillImage" />
        <dc:title></dc:title>
      </cc:Work>
    </rdf:RDF>
  </metadata>
  <g
     id="layer1"
     inkscape:groupmode="layer"
     inkscape:label="Layer 1">
    <g
       id="g1116"
       transform="matrix(0.07847248,0,0,0.07847248,-0.29722276,4.8460001)">
      <g
         id="g1013" />
      <g
         id="Name">
        <g
           id="Crypto_15_">
          <g
             id="g1018">
            <path
               d="m 307.61,184.2 c -11.37,0 -20.26,-3.34 -26.83,-10.02 -6.57,-6.68 -9.77,-15.53 -9.77,-26.56 0,-11.76 3.64,-21.34 10.93,-28.59 7.29,-7.26 16.77,-11.03 28.43,-11.03 7.29,0 13.27,0.87 18.22,2.76 v 15.97 c -4.96,-2.9 -10.64,-4.35 -16.91,-4.35 -7,0 -12.54,2.18 -16.77,6.53 -4.23,4.35 -6.41,10.31 -6.41,17.71 0,7.11 2.04,12.77 5.98,16.98 4.08,4.21 9.48,6.39 16.18,6.39 6.56,0 12.39,-1.6 17.79,-4.79 v 15.1 c 0.01,-0.02 -12.09,3.9 -20.84,3.9 z"
               class="st1"
               id="XMLID_325_" />
            <path
               id="path1016"
               d="m 307.61,184.92 c -11.47,0 -20.67,-3.44 -27.35,-10.23 -6.62,-6.74 -9.98,-15.85 -9.98,-27.07 0,-11.95 3.75,-21.74 11.15,-29.11 7.49,-7.46 17.23,-11.24 28.94,-11.24 7.48,0 13.52,0.92 18.48,2.81 l 0.47,0.18 V 128 l -1.1,-0.64 c -4.82,-2.82 -10.38,-4.25 -16.54,-4.25 -6.81,0 -12.12,2.06 -16.24,6.31 -4.12,4.25 -6.21,10.03 -6.21,17.21 0,6.84 1.95,12.39 5.78,16.49 3.96,4.08 9.23,6.15 15.65,6.15 6.39,0 12.09,-1.53 17.41,-4.69 l 1.1,-0.65 v 16.9 l -0.5,0.16 c -0.49,0.14 -12.3,3.93 -21.06,3.93 z m 2.77,-76.2 c -11.31,0 -20.7,3.64 -27.91,10.82 -7.11,7.08 -10.72,16.53 -10.72,28.08 0,10.83 3.22,19.6 9.56,26.05 6.48,6.59 15.08,9.8 26.3,9.8 7.53,0 17.75,-3 20.12,-3.72 v -13.31 c -5.24,2.87 -10.83,4.26 -17.06,4.26 -6.83,0 -12.45,-2.22 -16.71,-6.61 -4.1,-4.39 -6.18,-10.27 -6.18,-17.49 0,-7.56 2.23,-13.69 6.62,-18.21 4.35,-4.48 10.17,-6.75 17.29,-6.75 5.96,0 11.4,1.29 16.18,3.84 v -14.22 c -4.7,-1.71 -10.43,-2.54 -17.49,-2.54 z"
               class="st1"
               style="fill:none" />
          </g>
          <g
             id="g1023">
            <path
               d="m 374.52,144.86 c -1.9,-1.02 -4.23,-1.6 -6.85,-1.6 -3.5,0 -6.27,1.31 -8.31,3.92 -2.04,2.61 -3.06,6.1 -3.06,10.6 v 25.11 H 339.97 V 130.2 h 16.33 v 9.73 h 0.15 c 2.62,-7.11 7.29,-10.74 14,-10.74 1.75,0 3.06,0.15 4.08,0.58 z"
               class="st1"
               id="XMLID_324_" />
            <path
               id="path1021"
               d="m 357.03,183.62 h -17.79 v -54.14 h 17.79 v 7.32 c 2.89,-5.53 7.39,-8.34 13.41,-8.34 2.01,0 3.32,0.19 4.37,0.64 l 0.44,0.19 v 16.79 l -1.07,-0.57 c -1.84,-0.99 -4.09,-1.51 -6.51,-1.51 -3.29,0 -5.82,1.19 -7.74,3.64 -1.96,2.51 -2.91,5.83 -2.91,10.15 v 25.83 z m -16.33,-1.46 h 14.87 v -24.38 c 0,-4.66 1.05,-8.27 3.22,-11.04 2.18,-2.79 5.16,-4.2 8.88,-4.2 2.21,0 4.3,0.4 6.12,1.17 v -13.44 c -0.8,-0.25 -1.86,-0.36 -3.35,-0.36 -6.41,0 -10.76,3.36 -13.31,10.26 l -0.18,0.48 h -1.38 v -9.72 H 340.7 Z"
               class="st1"
               style="fill:none" />
          </g>
          <g
             id="g1028">
            <path
               d="m 436.63,130.2 -21.43,56.75 c -5.1,13.64 -12.98,20.47 -23.33,20.47 -3.94,0 -7.14,-0.44 -9.77,-1.31 V 193.2 c 2.19,1.31 4.52,1.89 7,1.89 4.23,0 7.14,-2.03 8.75,-5.95 l 2.77,-6.53 -21.43,-52.54 h 18.22 l 9.91,31.93 c 0.58,2.03 1.17,4.35 1.46,6.97 h 0.15 c 0.29,-2.03 0.87,-4.35 1.75,-6.97 l 9.91,-32.08 h 16.04 z"
               class="st1"
               id="XMLID_323_" />
            <path
               id="path1026"
               d="m 391.87,208.15 c -4,0 -7.27,-0.44 -10,-1.34 l -0.5,-0.16 v -14.72 l 1.1,0.66 c 2.01,1.2 4.17,1.78 6.62,1.78 3.92,0 6.56,-1.8 8.07,-5.5 l 2.66,-6.26 -21.72,-53.27 h 19.84 l 10.07,32.44 c 0.29,1.02 0.62,2.22 0.9,3.56 0.29,-1.13 0.64,-2.32 1.06,-3.57 l 10.07,-32.58 h 17.3 l -0.05,1.27 -21.43,56.75 c -5.17,13.89 -13.25,20.94 -23.99,20.94 z m -9.03,-2.57 c 2.48,0.75 5.44,1.11 9.04,1.11 10.06,0 17.68,-6.73 22.64,-19.99 l 21.17,-56.07 h -14.56 l -9.75,31.57 c -0.86,2.57 -1.44,4.87 -1.72,6.86 l -0.09,0.62 h -1.43 l -0.07,-0.65 c -0.3,-2.69 -0.92,-5.07 -1.43,-6.85 l -9.75,-31.4 h -16.6 l 21.14,51.82 -2.89,6.81 c -1.73,4.24 -4.9,6.39 -9.42,6.39 -2.28,0 -4.34,-0.46 -6.27,-1.39 v 11.17 z"
               class="st1"
               style="fill:none" />
          </g>
          <g
             id="g1033">
            <path
               d="m 459.67,176.79 h -0.15 v 30.34 H 443.19 V 130.2 h 16.33 v 7.84 h 0.15 c 4.08,-6.1 9.62,-9.14 16.91,-9.14 6.85,0 12.1,2.32 15.89,6.97 3.79,4.65 5.54,11.03 5.54,19.01 0,8.71 -2.19,15.82 -6.56,21.05 -4.37,5.37 -10.21,7.98 -17.35,7.98 -6.12,0.14 -11.08,-2.33 -14.43,-7.12 z m -0.44,-21.62 v 4.21 c 0,3.63 1.02,6.53 2.92,8.85 1.9,2.32 4.52,3.48 7.58,3.48 3.64,0 6.56,-1.45 8.6,-4.35 2.04,-2.9 3.06,-6.97 3.06,-12.19 0,-9.29 -3.64,-13.93 -10.79,-13.93 -3.35,0 -6.12,1.31 -8.16,3.77 -2.05,2.61 -3.21,5.95 -3.21,10.16 z"
               class="st1"
               id="XMLID_322_" />
            <path
               id="path1031"
               d="m 460.25,207.86 h -17.79 v -78.38 h 17.79 V 136 c 4.12,-5.26 9.48,-7.83 16.33,-7.83 7,0 12.54,2.43 16.46,7.24 3.84,4.7 5.7,11.07 5.7,19.47 0,8.94 -2.27,16.18 -6.73,21.51 -4.45,5.47 -10.48,8.25 -17.91,8.25 -5.64,0.14 -10.4,-1.9 -13.85,-5.9 z m -16.33,-1.46 h 14.87 v -30.34 h 1.26 l 0.22,0.31 c 3.21,4.59 8,6.9 13.82,6.8 6.98,0 12.63,-2.6 16.8,-7.72 4.25,-5.07 6.4,-12 6.4,-20.59 0,-8.05 -1.76,-14.12 -5.38,-18.56 -3.68,-4.51 -8.69,-6.7 -15.33,-6.7 -7,0 -12.33,2.89 -16.3,8.82 l -0.22,0.32 h -1.27 v -7.84 h -14.87 z m 25.8,-33.96 c -3.33,0 -6.14,-1.3 -8.15,-3.75 -2.04,-2.5 -3.08,-5.64 -3.08,-9.31 v -4.21 c 0,-4.18 1.13,-7.75 3.36,-10.61 2.2,-2.66 5.21,-4.05 8.74,-4.05 7.64,0 11.52,4.93 11.52,14.66 0,5.35 -1.07,9.59 -3.19,12.61 -2.17,3.09 -5.27,4.66 -9.2,4.66 z m 0.88,-30.48 c -3.12,0 -5.67,1.18 -7.6,3.51 -2.01,2.58 -3.04,5.85 -3.04,9.7 v 4.21 c 0,3.38 0.9,6.13 2.75,8.4 1.72,2.1 4.14,3.21 7.01,3.21 3.43,0 6.12,-1.36 8,-4.04 1.94,-2.77 2.93,-6.73 2.93,-11.78 0.01,-8.89 -3.28,-13.21 -10.05,-13.21 z"
               class="st1"
               style="fill:none" />
          </g>
          <g
             id="g1038">
            <path
               d="m 529.79,184.05 c -11.52,0 -17.2,-5.95 -17.2,-17.85 v -23.95 h -8.6 v -11.9 h 8.6 v -11.32 l 16.18,-4.64 v 15.97 h 11.81 v 11.9 h -11.81 v 21.34 c 0,5.52 2.19,8.27 6.56,8.27 1.75,0 3.5,-0.44 5.25,-1.45 v 11.76 c 0,-0.02 -5.83,1.87 -10.79,1.87 z"
               class="st1"
               id="XMLID_321_" />
            <path
               id="path1036"
               d="m 529.79,184.78 c -11.9,0 -17.93,-6.25 -17.93,-18.58 v -23.22 h -8.6 v -13.36 h 8.6 v -11.14 l 17.64,-5.06 v 16.2 h 11.81 v 13.36 H 529.5 v 20.61 c 0,5.15 1.85,7.55 5.83,7.55 1.72,0 3.32,-0.44 4.88,-1.35 l 1.1,-0.64 v 13.55 l -0.5,0.16 c -0.25,0.07 -6.01,1.92 -11.02,1.92 z m -25.08,-43.26 h 8.6 v 24.68 c 0,11.52 5.39,17.13 16.47,17.13 3.96,0 8.56,-1.25 10.06,-1.7 V 171.6 c -1.45,0.65 -2.96,0.99 -4.52,0.99 -3.33,0 -7.29,-1.56 -7.29,-9 v -22.06 h 11.81 v -10.45 h -11.81 v -15.73 l -14.72,4.23 v 11.5 h -8.6 z"
               class="st1"
               style="fill:none" />
          </g>
          <g
             id="g1043">
            <path
               d="m 574.69,184.05 c -8.75,0 -15.75,-2.47 -20.7,-7.4 -5.1,-4.94 -7.58,-11.61 -7.58,-20.03 0,-8.71 2.62,-15.53 7.87,-20.47 5.25,-4.94 12.25,-7.4 21.14,-7.4 8.75,0 15.6,2.47 20.7,7.4 4.96,4.94 7.44,11.47 7.44,19.45 0,8.71 -2.62,15.68 -7.73,20.76 -5.11,5.08 -12.24,7.69 -21.14,7.69 z m 0.29,-42.67 c -3.79,0 -6.85,1.31 -9.04,3.92 -2.19,2.61 -3.21,6.39 -3.21,11.18 0,10.16 4.08,15.1 12.25,15.1 7.87,0 11.66,-5.23 11.66,-15.53 0.15,-9.74 -3.78,-14.67 -11.66,-14.67 z"
               class="st1"
               id="XMLID_320_" />
            <path
               id="path1041"
               d="m 574.69,184.78 c -9,0 -16.14,-2.56 -21.22,-7.62 -5.17,-5 -7.8,-11.91 -7.8,-20.54 0,-8.87 2.73,-15.94 8.1,-20.99 5.36,-5.04 12.64,-7.6 21.64,-7.6 8.85,0 15.99,2.56 21.21,7.61 5.08,5.06 7.66,11.78 7.66,19.97 0,8.87 -2.67,16.02 -7.94,21.27 -5.26,5.24 -12.55,7.9 -21.65,7.9 z m 0.73,-55.3 c -8.73,0 -15.48,2.36 -20.64,7.2 -5.07,4.77 -7.64,11.48 -7.64,19.94 0,8.34 2.41,14.72 7.36,19.51 4.8,4.78 11.59,7.2 20.19,7.2 8.7,0 15.64,-2.52 20.62,-7.48 4.99,-4.96 7.51,-11.77 7.51,-20.24 0,-7.79 -2.43,-14.16 -7.22,-18.94 -4.99,-4.84 -11.6,-7.19 -20.18,-7.19 z m -0.44,42.81 c -8.61,0 -12.98,-5.32 -12.98,-15.82 0,-5.05 1.14,-8.96 3.38,-11.64 2.32,-2.77 5.55,-4.18 9.6,-4.18 3.7,0 6.62,1.06 8.69,3.15 2.54,2.56 3.78,6.68 3.7,12.24 0.01,10.79 -4.16,16.25 -12.39,16.25 z m 0,-30.19 c -3.59,0 -6.45,1.23 -8.48,3.66 -2.02,2.41 -3.04,6.01 -3.04,10.71 0,9.67 3.77,14.37 11.52,14.37 7.36,0 10.93,-4.84 10.93,-14.81 0.08,-5.17 -1.03,-8.94 -3.28,-11.22 -1.78,-1.79 -4.35,-2.71 -7.65,-2.71 z"
               class="st1"
               style="fill:none" />
          </g>
        </g>
        <g
           id="Compare_15_">
          <path
             d="m 675.58,180.5 c -5.39,2.61 -12.39,3.92 -21.14,3.92 -11.37,0 -20.26,-3.34 -26.82,-10.02 -6.56,-6.68 -9.77,-15.53 -9.77,-26.56 0,-11.76 3.64,-21.34 10.93,-28.74 7.29,-7.4 16.77,-11.03 28.43,-11.03 7.29,0 13.27,0.87 18.22,2.76 v 15.97 c -4.96,-2.9 -10.64,-4.35 -16.91,-4.35 -7,0 -12.54,2.18 -16.77,6.53 -4.23,4.35 -6.41,10.31 -6.41,17.71 0,7.11 2.04,12.77 5.98,16.98 4.08,4.21 9.48,6.39 16.33,6.39 6.56,0 12.39,-1.6 17.93,-4.79 z"
             class="st0"
             id="XMLID_319_" />
          <path
             d="m 712.17,184.41 c -8.75,0 -15.75,-2.47 -20.85,-7.4 -5.1,-4.94 -7.58,-11.61 -7.58,-20.03 0,-8.71 2.62,-15.53 7.87,-20.47 5.25,-4.94 12.25,-7.4 21.29,-7.4 8.75,0 15.6,2.47 20.7,7.4 4.96,4.94 7.44,11.47 7.44,19.45 0,8.71 -2.62,15.68 -7.73,20.76 -5.25,5.23 -12.25,7.69 -21.14,7.69 z m 0.44,-42.67 c -3.79,0 -6.85,1.31 -9.04,3.92 -2.19,2.61 -3.21,6.39 -3.21,11.18 0,10.16 4.08,15.1 12.25,15.1 7.87,0 11.66,-5.23 11.66,-15.53 0.15,-9.73 -3.79,-14.67 -11.66,-14.67 z"
             class="st0"
             id="XMLID_318_" />
          <path
             d="m 835.51,183.11 h -16.33 v -29.9 c 0,-7.69 -2.77,-11.47 -8.46,-11.47 -2.62,0 -4.81,1.16 -6.56,3.48 -1.75,2.32 -2.48,5.23 -2.48,8.56 v 29.47 h -16.33 v -30.34 c 0,-7.4 -2.77,-11.18 -8.31,-11.18 -2.77,0 -4.96,1.16 -6.71,3.34 -1.6,2.18 -2.48,5.23 -2.48,9 v 29.18 h -16.33 v -52.69 h 16.33 v 8.27 H 768 c 1.75,-2.76 4.08,-5.08 7.14,-6.82 3.06,-1.74 6.41,-2.61 10.06,-2.61 7.44,0 12.54,3.34 15.31,9.87 4.08,-6.53 9.91,-9.87 17.79,-9.87 11.52,0 17.2,7.11 17.2,21.19 z"
             class="st0"
             id="XMLID_317_" />
          <path
             d="m 864.96,177.01 h -0.15 v 30.34 h -16.33 v -76.78 h 16.33 v 7.98 h 0.15 c 4.08,-6.1 9.62,-9.14 16.91,-9.14 6.85,0 12.1,2.32 15.89,6.97 3.79,4.64 5.54,11.03 5.54,19.16 0,8.71 -2.19,15.82 -6.56,21.19 -4.37,5.37 -10.21,7.98 -17.35,7.98 -6.27,-0.3 -11.08,-2.76 -14.43,-7.7 z m -0.44,-21.48 v 4.21 c 0,3.63 1.02,6.53 2.92,8.85 1.9,2.32 4.52,3.48 7.58,3.48 3.64,0 6.56,-1.45 8.6,-4.35 2.04,-2.9 3.06,-6.97 3.06,-12.19 0,-9.29 -3.64,-13.93 -10.79,-13.93 -3.35,0 -6.12,1.31 -8.16,3.77 -2.19,2.61 -3.21,5.95 -3.21,10.16 z"
             class="st0"
             id="XMLID_316_" />
          <path
             d="M 956.95,183.11 H 941.5 v -7.55 h -0.29 c -3.5,5.95 -8.75,8.85 -15.75,8.85 -5.1,0 -9.18,-1.45 -12.1,-4.35 -2.92,-2.9 -4.37,-6.82 -4.37,-11.61 0,-10.16 6.12,-16.11 18.22,-17.71 l 14.29,-1.89 c 0,-5.81 -3.06,-8.56 -9.33,-8.56 -6.27,0 -12.25,1.89 -17.93,5.66 v -12.19 c 2.33,-1.16 5.39,-2.18 9.33,-3.05 3.94,-0.87 7.58,-1.31 10.79,-1.31 15.02,0 22.6,7.55 22.6,22.5 z m -15.31,-21.34 v -3.48 l -9.62,1.16 c -5.25,0.73 -8.02,3.05 -8.02,7.11 0,1.89 0.58,3.34 1.9,4.5 1.31,1.16 3.06,1.74 5.25,1.74 3.06,0 5.54,-1.02 7.44,-3.19 2.03,-1.89 3.05,-4.65 3.05,-7.84 z"
             class="st0"
             id="XMLID_315_" />
          <path
             d="m 1004.33,145.22 c -1.9,-1.02 -4.23,-1.6 -6.85,-1.6 -3.5,0 -6.27,1.31 -8.31,3.92 -2.04,2.61 -3.06,6.1 -3.06,10.6 v 25.11 h -16.33 v -52.69 h 16.33 v 9.73 h 0.15 c 2.62,-7.11 7.29,-10.74 14,-10.74 1.75,0 3.06,0.15 4.08,0.58 z"
             class="st0"
             id="XMLID_314_" />
          <path
             d="m 1059,161.48 h -34.55 c 0.58,7.69 5.39,11.47 14.43,11.47 5.83,0 10.93,-1.31 15.31,-4.06 v 11.76 c -4.96,2.61 -11.23,3.92 -19.1,3.92 -8.6,0 -15.16,-2.32 -19.83,-7.11 -4.67,-4.64 -7.14,-11.32 -7.14,-19.74 0,-8.71 2.48,-15.68 7.58,-20.76 5.1,-5.08 11.37,-7.69 18.81,-7.69 7.73,0 13.7,2.32 17.93,6.82 4.23,4.5 6.27,10.74 6.27,18.58 v 6.82 h 0.29 z m -15.16,-10.01 c 0,-7.55 -3.06,-11.32 -9.18,-11.32 -2.62,0 -4.81,1.02 -6.85,3.19 -1.9,2.18 -3.06,4.79 -3.5,8.13 z"
             class="st0"
             id="XMLID_313_" />
        </g>
      </g>
      <g
         id="Logo_17_">
        <polyline
           points="97.56,167.05 97.56,147.67 117.81,127.5 117.81,167.05  "
           class="st1"
           id="Bar_Left_37_" />
        <polyline
           points="126.99,167.05 126.99,140.26 136.8,147.35 148.98,137.11 148.98,167.05  "
           class="st1"
           id="Bar_Middle_37_" />
        <polyline
           points="157.05,167.05 180.31,167.05 180.31,109.7 157.05,130.18  "
           class="st1"
           id="Bar_Right_37_" />
        <path
           d="m 96.45,137.11 -4.75,-5.51 26.27,-25.05 18.83,17.8 33.23,-30.09 -5.54,-6.62 23.42,-5.36 -4.59,22.53 -6.65,-4.73 -39.88,38.28 -18.83,-16.07 -1.9,-1.73 c 0,0 -17.41,17.8 -18.51,17.17"
           class="st0"
           id="Arrow_37_" />
        <path
           id="path1059"
           d="m 164.77,202.44 -4.35,-15.97 c 33.81,-9.13 62.88,-28.82 75.85,-51.4 6.69,-11.65 8.7,-23.37 5.81,-33.9 -4.12,-15.01 -17.75,-26.79 -38.38,-33.15 -21.95,-6.78 -48.76,-6.54 -75.49,0.67 l -4.35,-15.97 c 29.73,-8.02 59.84,-8.2 84.76,-0.51 26.24,8.1 43.81,23.94 49.48,44.59 4.08,14.86 1.52,30.93 -7.41,46.48 -15.31,26.66 -47.43,48.78 -85.92,59.16 z"
           class="st0" />
        <path
           id="path1061"
           d="m 111.89,211.43 c -14.02,0 -27.45,-1.88 -39.64,-5.64 C 46.01,197.69 28.44,181.85 22.77,161.2 18.69,146.34 21.25,130.27 30.18,114.72 45.49,88.06 77.62,65.95 116.11,55.56 l 4.35,15.97 c -33.81,9.13 -62.88,28.82 -75.85,51.41 -6.69,11.65 -8.7,23.37 -5.81,33.9 4.12,15.01 17.75,26.79 38.38,33.15 21.95,6.78 48.76,6.54 75.49,-0.67 l 4.35,15.97 c -15.2,4.09 -30.49,6.14 -45.13,6.14 z"
           class="st1" />
      </g>
    </g>
  </g>
  <style
     type="text/css"
     id="style943">
	.st0{fill:#17181B;}
</style>
  <style
     type="text/css"
     id="style995">
	.st0{fill:#00D665;}
	.st1{fill:#0A1623;}
</style>
  <style
     type="text/css"
     id="style943-2">
	.st0{fill:#17181B;}
</style>
  <style
     type="text/css"
     id="style995-2">
	.st0{fill:#00D665;}
	.st1{fill:#0A1623;}
</style>
</svg>
